General
Format                           : Matroska
File size                        : 35.5 MiB
Duration                         : 21mn 13s
Overall bit rate                 : 234 Kbps
Movie name                       : Family Guy S10E03 40Mb port8zero


Video
ID                               : 1
Format                           : AVC
Format/Info                      : Advanced Video Codec
Format profile                   : High@L4.0
Format settings, CABAC           : Yes
Format settings, ReFrames        : 3 frames
Format settings, GOP             : M=4, N=15
Codec ID                         : V_MPEG4/ISO/AVC
Duration                         : 21mn 13s
Bit rate mode                    : Variable
Bit rate                         : 101 Kbps
Nominal bit rate                 : 133 Kbps
Maximum bit rate                 : 25.0 Mbps
Width                            : 624 pixels
Height                           : 352 pixels
Display aspect ratio             : 16:9
Frame rate                       : 23.976 fps
Color space                      : YUV
Chroma subsampling               : 4:2:0
Bit depth                        : 8 bits
Scan type                        : Progressive
Bits/(Pixel*Frame)               : 0.019
Stream size                      : 15.4 MiB (43%)
Writing library                  : x264 core 114 r1924 08d04a4


Audio
ID                               : 2
Format                           : Vorbis
Format settings, Floor           : 1
Codec ID                         : A_VORBIS
Duration                         : 21mn 13s
Bit rate mode                    : Constant
Bit rate                         : 128 Kbps
Channel(s)                       : 2 channels
Sampling rate                    : 48.0 KHz
Stream size                      : 19.4 MiB (55%)
Writing library                  : aoTuV b5d  (UTC 2009-03-01)
Language                         : English



HASH:     643346947258705DE113576DEFAD818204406435





ENJOY
       scuba-doo


share the wealth and seed, comments are more then welcome